
<svg width="416" height="425" viewBox="0 0 416 425" fill="none" xmlns="http://www.w3.org/2000/svg">
<ellipse cx="208" cy="212.5" rx="208" ry="212.5" fill="#22C55E"/>
<path d="M238.94 240.289C238.94 247.857 237.964 254.531 236.011 260.309C234.139 266.087 231.453 271.091 227.954 275.323C224.536 279.555 220.467 283.095 215.747 285.943C211.027 288.792 205.859 291.07 200.244 292.779C194.71 294.488 188.81 295.709 182.544 296.441C176.359 297.174 170.052 297.54 163.623 297.54C155.16 297.54 147.347 296.889 140.186 295.587C133.024 294.366 126.27 292.413 119.922 289.728C113.656 286.961 107.593 283.421 101.733 279.107C95.9554 274.794 90.1774 269.545 84.3994 263.36L109.302 238.092C111.58 243.707 114.714 248.915 118.701 253.717C122.689 258.437 127.043 262.506 131.763 265.924C136.564 269.342 141.528 272.027 146.655 273.98C151.782 275.934 156.624 276.91 161.182 276.91C166.553 276.91 171.598 276.544 176.318 275.812C181.038 274.998 185.148 273.696 188.647 271.905C192.147 270.115 194.873 267.755 196.826 264.825C198.861 261.814 199.878 258.071 199.878 253.595C199.878 250.177 199.105 247.247 197.559 244.806C196.012 242.364 193.978 240.289 191.455 238.58C189.014 236.79 186.206 235.284 183.032 234.063C179.858 232.843 176.603 231.826 173.267 231.012C170.011 230.117 166.797 229.343 163.623 228.692C160.449 227.96 157.642 227.228 155.2 226.495C150.399 225.112 145.394 223.647 140.186 222.101C134.977 220.473 129.85 218.642 124.805 216.607C119.759 214.573 114.958 212.254 110.4 209.649C105.924 206.964 101.978 203.831 98.5596 200.25C95.1416 196.588 92.4154 192.397 90.3809 187.677C88.3464 182.875 87.3291 177.382 87.3291 171.197C87.3291 163.792 88.2243 157.241 90.0146 151.544C91.8864 145.766 94.4906 140.761 97.8271 136.529C101.164 132.298 105.111 128.757 109.668 125.909C114.225 122.979 119.23 120.66 124.683 118.951C130.135 117.161 135.913 115.899 142.017 115.167C148.201 114.353 154.508 113.946 160.938 113.946C169.727 113.946 177.702 114.76 184.863 116.388C192.106 118.015 198.779 120.335 204.883 123.346C210.986 126.357 216.561 129.978 221.606 134.21C226.733 138.36 231.535 142.999 236.011 148.126L211.108 173.395C209.155 167.535 206.429 162.245 202.93 157.525C199.512 152.805 195.687 148.777 191.455 145.44C187.223 142.022 182.788 139.418 178.149 137.628C173.511 135.756 169.035 134.82 164.722 134.82C159.106 134.82 153.939 135.227 149.219 136.041C144.499 136.773 140.43 138.035 137.012 139.825C133.675 141.534 131.071 143.894 129.199 146.905C127.327 149.835 126.392 153.497 126.392 157.892C126.392 161.391 127.083 164.361 128.467 166.803C129.85 169.244 131.681 171.319 133.96 173.028C136.32 174.737 138.965 176.161 141.895 177.301C144.824 178.359 147.835 179.295 150.928 180.108C154.102 180.922 157.194 181.655 160.205 182.306C163.298 182.875 166.105 183.526 168.628 184.259C173.511 185.642 178.638 187.107 184.009 188.653C189.38 190.2 194.67 192.031 199.878 194.146C205.086 196.181 210.05 198.541 214.771 201.227C219.491 203.912 223.641 207.127 227.222 210.87C230.802 214.532 233.651 218.805 235.767 223.688C237.882 228.489 238.94 234.023 238.94 240.289ZM318.286 238.824C318.286 250.136 316.821 261.651 313.892 273.37C311.043 285.007 307.015 296.279 301.807 307.184C296.68 318.17 290.495 328.424 283.252 337.945C276.009 347.467 268.034 355.768 259.326 362.848L240.527 351.495C245.41 344.822 249.683 337.254 253.345 328.79C257.007 320.326 260.059 311.537 262.5 302.423C264.941 293.308 266.772 284.153 267.993 274.957C269.214 265.761 269.824 257.013 269.824 248.712V118.219H318.286V238.824Z" fill="#111827"/>
</svg>
